# Blender 4.5.2 LTS
# www.blender.org
mtllib ob.mtl
o èçƒ
v 0.070925 -0.600000 -1.134186
v -0.466915 -0.600000 -1.096576
v -0.466915 -1.000000 -1.096576
v 0.070925 -1.000000 -1.134186
v -0.502976 -0.600000 -1.083689
v -0.502976 -1.000000 -1.083689
v -0.844109 -0.600000 -0.894461
v -0.844109 -1.000000 -0.894461
v -1.106532 -0.600000 -0.592577
v -1.106532 -1.000000 -0.592577
v -1.246443 -0.600000 -0.228429
v -1.246443 -1.000000 -0.228429
v -1.138842 -1.400000 -0.352209
v -1.051289 -1.400000 -0.544555
v -1.254186 -1.000000 -0.190925
v -1.189642 -1.400000 -0.134818
v -1.216576 -1.000000 0.346915
v -1.160469 -1.400000 0.282371
v -1.203689 -1.000000 0.382976
v -1.079908 -1.400000 0.490577
v -1.014461 -1.000000 0.724109
v -0.966439 -1.400000 0.668866
v -0.712577 -1.000000 0.986532
v -0.664555 -1.400000 0.931289
v -0.348429 -1.000000 1.126443
v -0.472210 -1.400000 1.018842
v -0.310925 -1.000000 1.134186
v -0.254818 -1.400000 1.069642
v -0.060810 -1.775880 0.846461
v -0.086005 -1.800000 0.824559
v -0.494838 -1.800000 0.736052
v -0.625117 -1.530196 0.885921
v -0.038908 -1.800000 0.821266
v 0.370577 -1.400000 0.959909
v 0.503498 -1.530196 0.807001
v 0.353628 -1.800000 0.676722
v 0.162371 -1.400000 1.040469
v 0.765921 -1.530196 0.505117
v 0.616052 -1.800000 0.374838
v 0.898842 -1.400000 0.352210
v 0.949642 -1.400000 0.134818
v 0.726461 -1.775880 -0.059190
v 0.704559 -1.800000 -0.033995
v 0.920469 -1.400000 -0.282371
v 0.839909 -1.400000 -0.490577
v 0.687001 -1.530196 -0.623498
v 0.556722 -1.800000 -0.473628
v 0.701266 -1.800000 -0.081092
v 0.726439 -1.400000 -0.668866
v 0.424555 -1.400000 -0.931289
v 0.385117 -1.530196 -0.885921
v 0.232210 -1.400000 -1.018842
v 0.014818 -1.400000 -1.069642
v -0.179190 -1.775880 -0.846461
v -0.153995 -1.800000 -0.824559
v 0.254838 -1.800000 -0.736052
v -0.201092 -1.800000 -0.821266
v -0.610577 -1.400000 -0.959908
v -0.743498 -1.530196 -0.807001
v -0.593628 -1.800000 -0.676721
v -0.402371 -1.400000 -1.040469
v -0.856052 -1.800000 -0.374838
v -1.005921 -1.530196 -0.505117
v -0.788866 -1.400000 -0.846439
v -0.704038 -1.960788 -0.242693
v -0.441614 -1.960788 -0.544577
v -0.944559 -1.800000 0.033995
v -0.941266 -1.800000 0.081092
v -0.664577 -1.960788 0.321614
v -0.402154 -2.115109 0.019730
v -0.796722 -1.800000 0.473628
v -0.362694 -1.960788 0.584038
v -0.100270 -2.115109 0.282154
v 0.162154 -2.115109 -0.019730
v -0.139730 -2.115109 -0.282154
v 0.424577 -1.960788 -0.321614
v 0.122694 -1.960788 -0.584037
v 0.464038 -1.960788 0.242694
v 0.201614 -1.960788 0.544577
v -0.966461 -1.775880 0.059190
v 0.108429 -1.000000 -1.126443
v 0.774461 -1.000000 -0.724109
v 0.472577 -1.000000 -0.986532
v 0.774461 -0.600000 -0.724109
v 0.472577 -0.600000 -0.986532
v 0.108429 -0.600000 -1.126443
v 0.963689 -1.000000 -0.382976
v 0.963689 -0.600000 -0.382976
v 0.774461 -0.200000 -0.724109
v 0.963689 -0.200000 -0.382976
v 0.774461 0.200000 -0.724109
v 0.963689 0.200000 -0.382976
v 0.976576 0.200000 -0.346915
v 0.976576 -0.200000 -0.346915
v 1.014186 -0.200000 0.190925
v 1.014186 0.200000 0.190925
v 1.006443 0.200000 0.228429
v 1.006443 -0.200000 0.228429
v 0.866532 -0.200000 0.592577
v 0.866532 0.200000 0.592577
v 0.604109 0.200000 0.894461
v 0.604109 -0.200000 0.894461
v 0.262976 0.200000 1.083689
v 0.262976 -0.200000 1.083689
v 0.226915 -0.200000 1.096576
v 0.226915 0.200000 1.096576
v -0.310925 0.200000 1.134186
v -0.310925 -0.200000 1.134186
v -0.348429 -0.200000 1.126443
v -0.348429 0.200000 1.126443
v -0.712577 0.200000 0.986532
v -0.712577 -0.200000 0.986532
v -1.014461 -0.200000 0.724109
v -1.014461 0.200000 0.724109
v -1.203689 -0.200000 0.382976
v -1.203689 0.200000 0.382976
v -1.216576 0.200000 0.346915
v -1.216576 -0.200000 0.346915
v -1.254186 -0.200000 -0.190925
v -1.254186 0.200000 -0.190925
v -1.246443 0.200000 -0.228429
v -1.246443 -0.200000 -0.228429
v -1.106532 -0.200000 -0.592577
v -1.106532 0.200000 -0.592577
v -0.844109 -0.200000 -0.894461
v -0.844109 0.200000 -0.894461
v -0.502976 0.200000 -1.083689
v -0.502976 -0.200000 -1.083689
v -0.466915 -0.200000 -1.096576
v -0.466915 0.200000 -1.096576
v 0.070925 0.200000 -1.134186
v 0.070925 -0.200000 -1.134186
v 0.108429 -0.200000 -1.126443
v 0.108429 0.200000 -1.126443
v 0.472577 0.200000 -0.986532
v 0.472577 -0.200000 -0.986532
v 0.472577 0.600000 -0.986532
v 0.108429 0.600000 -1.126443
v 0.774461 0.600000 -0.724109
v 0.774461 1.000000 -0.724109
v 0.472577 1.000000 -0.986532
v 0.963689 0.600000 -0.382976
v 0.963689 1.000000 -0.382976
v 0.976576 1.000000 -0.346915
v 0.976576 0.600000 -0.346915
v 1.014186 0.600000 0.190925
v 1.014186 1.000000 0.190925
v 1.006443 1.000000 0.228429
v 1.006443 0.600000 0.228429
v 0.866532 0.600000 0.592577
v 0.866532 1.000000 0.592577
v 0.604109 1.000000 0.894461
v 0.604109 0.600000 0.894461
v 0.262976 1.000000 1.083689
v 0.262976 0.600000 1.083689
v 0.226915 0.600000 1.096576
v 0.226915 1.000000 1.096576
v 0.370577 1.400000 0.959908
v 0.162371 1.400000 1.040469
v -0.254818 1.400000 1.069642
v -0.310925 1.000000 1.134186
v -0.348429 1.000000 1.126443
v -0.472210 1.400000 1.018842
v -0.664555 1.400000 0.931289
v -0.712577 1.000000 0.986532
v -1.014461 1.000000 0.724109
v -0.966439 1.400000 0.668866
v -0.712577 0.600000 0.986532
v -1.014461 0.600000 0.724109
v -1.203689 0.600000 0.382976
v -1.203689 1.000000 0.382976
v -1.216576 1.000000 0.346915
v -1.216576 0.600000 0.346915
v -1.254186 0.600000 -0.190925
v -1.254186 1.000000 -0.190925
v -1.246443 1.000000 -0.228429
v -1.246443 0.600000 -0.228429
v -1.106532 0.600000 -0.592577
v -1.106532 1.000000 -0.592577
v -0.844109 0.600000 -0.894461
v -0.844109 1.000000 -0.894461
v -1.051289 1.400000 -0.544555
v -0.788866 1.400000 -0.846439
v -0.610577 1.400000 -0.959909
v -0.502976 1.000000 -1.083690
v -0.466915 1.000000 -1.096576
v -0.402371 1.400000 -1.040469
v 0.014818 1.400000 -1.069642
v 0.070925 1.000000 -1.134186
v 0.108429 1.000000 -1.126443
v 0.232210 1.400000 -1.018842
v 0.424555 1.400000 -0.931289
v 0.385117 1.530196 -0.885921
v 0.726439 1.400000 -0.668866
v 0.687001 1.530196 -0.623498
v 0.556722 1.800000 -0.473628
v 0.254838 1.800000 -0.736052
v 0.839909 1.400000 -0.490577
v 0.920469 1.400000 -0.282371
v 0.726461 1.775880 -0.059190
v 0.701266 1.800000 -0.081092
v 0.704559 1.800000 -0.033995
v 0.949642 1.400000 0.134818
v 0.898842 1.400000 0.352209
v 0.765921 1.530196 0.505117
v 0.616052 1.800000 0.374838
v 0.353628 1.800000 0.676721
v 0.503498 1.530196 0.807001
v 0.548866 1.400000 0.846439
v 0.811289 1.400000 0.544555
v 0.201614 1.960788 0.544577
v 0.464038 1.960788 0.242693
v -0.038908 1.800000 0.821266
v -0.086005 1.800000 0.824559
v -0.362694 1.960788 0.584037
v -0.100270 2.115109 0.282154
v -0.494838 1.800000 0.736052
v -0.796722 1.800000 0.473628
v -0.664577 1.960788 0.321614
v -0.941266 1.800000 0.081092
v -0.944559 1.800000 0.033995
v -0.704038 1.960788 -0.242694
v -0.402154 2.115109 0.019730
v -0.441614 1.960788 -0.544577
v -0.139730 2.115109 -0.282154
v -0.856052 1.800000 -0.374838
v -0.593628 1.800000 -0.676722
v -0.201092 1.800000 -0.821266
v -1.005921 1.530196 -0.505117
v -0.743498 1.530196 -0.807001
v -0.966461 1.775880 0.059190
v -1.189642 1.400000 -0.134818
v -1.138842 1.400000 -0.352210
v -1.160469 1.400000 0.282371
v 0.162154 2.115109 -0.019730
v 0.122694 1.960788 -0.584038
v 0.424577 1.960788 -0.321614
v -0.927001 1.530196 0.623498
v -1.079908 1.400000 0.490577
v -0.625117 1.530196 0.885921
v -0.060810 1.775880 0.846461
v -0.153995 1.800000 -0.824559
v 0.070925 0.600000 -1.134186
v -0.179190 1.775880 -0.846461
v -0.466915 0.600000 -1.096576
v -0.502976 0.600000 -1.083689
v -0.348429 0.600000 1.126443
v -0.310925 0.600000 1.134186
v -1.216576 -0.600000 0.346915
v -1.254186 -0.600000 -0.190925
v -1.203689 -0.600000 0.382976
v -0.712577 -0.600000 0.986532
v -1.014461 -0.600000 0.724109
v -0.348429 -0.600000 1.126443
v -0.310925 -0.600000 1.134186
v 0.262976 -0.600000 1.083689
v 0.226915 -0.600000 1.096576
v 0.262976 -1.000000 1.083690
v 0.226915 -1.000000 1.096576
v 0.604109 -0.600000 0.894461
v 0.604109 -1.000000 0.894461
v 0.866532 -0.600000 0.592577
v 0.866532 -1.000000 0.592577
v 1.006443 -0.600000 0.228429
v 1.006443 -1.000000 0.228429
v 1.014186 -0.600000 0.190925
v 1.014186 -1.000000 0.190925
v 0.976576 -0.600000 -0.346915
v 0.976576 -1.000000 -0.346915
v 0.811289 -1.400000 0.544555
v 0.548866 -1.400000 0.846439
v -0.927001 -1.530196 0.623498
vn 0.0668 -0.0000 -0.9978
vn -0.2050 -0.0000 -0.9788
vn -0.2152 -0.0855 -0.9728
vn 0.0777 -0.0855 -0.9933
vn -0.4122 -0.0000 -0.9111
vn -0.4122 -0.0869 -0.9069
vn -0.6294 -0.0000 -0.7771
vn -0.6324 -0.0835 -0.7702
vn -0.8571 -0.0000 -0.5152
vn -0.8507 -0.0835 -0.5190
vn -0.9596 -0.0000 -0.2814
vn -0.9555 -0.0869 -0.2820
vn -0.8936 -0.3524 -0.2780
vn -0.8097 -0.2910 -0.5096
vn -0.9933 -0.0855 -0.0777
vn -0.9308 -0.3567 -0.0801
vn -0.9728 -0.0855 0.2152
vn -0.9110 -0.3544 0.2107
vn -0.9069 -0.0869 0.4122
vn -0.8444 -0.3496 0.4058
vn -0.7702 -0.0835 0.6324
vn -0.7309 -0.2910 0.6174
vn -0.5190 -0.0835 0.8507
vn -0.5096 -0.2910 0.8097
vn -0.2820 -0.0869 0.9555
vn -0.2843 -0.3496 0.8927
vn -0.0777 -0.0855 0.9933
vn -0.0818 -0.3544 0.9315
vn 0.0595 -0.5944 0.8019
vn -0.0604 -0.7230 0.6882
vn -0.3298 -0.6765 0.6584
vn -0.4230 -0.5161 0.7448
vn 0.1601 -0.7275 0.6672
vn 0.3996 -0.3524 0.8463
vn 0.5183 -0.5175 0.6809
vn 0.4187 -0.6757 0.6066
vn 0.2088 -0.3567 0.9106
vn 0.7464 -0.5175 0.4185
vn 0.6590 -0.6757 0.3302
vn 0.8936 -0.3524 0.2780
vn 0.9308 -0.3567 0.0801
vn 0.8024 -0.5944 -0.0527
vn 0.6806 -0.7294 0.0689
vn 0.9110 -0.3544 -0.2107
vn 0.8444 -0.3496 -0.4058
vn 0.6787 -0.5161 -0.5225
vn 0.6061 -0.6765 -0.4182
vn 0.6672 -0.7306 -0.1453
vn 0.7309 -0.2910 -0.6174
vn 0.5096 -0.2910 -0.8097
vn 0.4230 -0.5161 -0.7448
vn 0.2843 -0.3496 -0.8927
vn 0.0818 -0.3544 -0.9315
vn -0.0595 -0.5944 -0.8019
vn 0.0604 -0.7230 -0.6882
vn 0.3298 -0.6765 -0.6584
vn -0.1601 -0.7275 -0.6672
vn -0.3996 -0.3524 -0.8463
vn -0.5183 -0.5175 -0.6809
vn -0.4187 -0.6757 -0.6066
vn -0.2088 -0.3567 -0.9106
vn -0.6590 -0.6757 -0.3302
vn -0.7464 -0.5175 -0.4185
vn -0.6174 -0.2910 -0.7309
vn -0.4815 -0.8576 -0.1809
vn -0.2548 -0.8560 -0.4498
vn -0.6806 -0.7294 -0.0689
vn -0.6672 -0.7306 0.1453
vn -0.4514 -0.8573 0.2474
vn -0.2559 -0.9665 0.0181
vn -0.6061 -0.6765 0.4182
vn -0.1897 -0.8558 0.4812
vn 0.0179 -0.9666 0.2556
vn 0.2559 -0.9665 -0.0181
vn -0.0179 -0.9666 -0.2556
vn 0.4514 -0.8573 -0.2474
vn 0.1897 -0.8558 -0.4812
vn 0.4815 -0.8576 0.1809
vn 0.2548 -0.8560 0.4498
vn -0.8024 -0.5944 0.0527
vn 0.2820 -0.0869 -0.9555
vn 0.7702 -0.0835 -0.6324
vn 0.5190 -0.0835 -0.8507
vn 0.7771 -0.0000 -0.6294
vn 0.5152 -0.0000 -0.8571
vn 0.2814 -0.0000 -0.9596
vn 0.9069 -0.0869 -0.4122
vn 0.9111 -0.0000 -0.4122
vn 0.9788 -0.0000 -0.2050
vn 0.9978 -0.0000 0.0668
vn 0.9596 -0.0000 0.2814
vn 0.8571 -0.0000 0.5152
vn 0.6294 -0.0000 0.7771
vn 0.4122 -0.0000 0.9111
vn 0.2050 -0.0000 0.9788
vn -0.0668 -0.0000 0.9978
vn -0.2814 -0.0000 0.9596
vn -0.5152 -0.0000 0.8571
vn -0.7771 -0.0000 0.6294
vn -0.9111 -0.0000 0.4122
vn -0.9788 -0.0000 0.2050
vn -0.9978 -0.0000 -0.0668
vn 0.7702 0.0835 -0.6324
vn 0.5190 0.0835 -0.8507
vn 0.9069 0.0869 -0.4122
vn 0.9728 0.0855 -0.2152
vn 0.9933 0.0855 0.0777
vn 0.9555 0.0869 0.2820
vn 0.8507 0.0835 0.5190
vn 0.6324 0.0835 0.7702
vn 0.4122 0.0869 0.9069
vn 0.2152 0.0855 0.9728
vn 0.3996 0.3524 0.8463
vn 0.2088 0.3567 0.9106
vn -0.0818 0.3544 0.9315
vn -0.0777 0.0855 0.9933
vn -0.2820 0.0869 0.9555
vn -0.2843 0.3496 0.8927
vn -0.5096 0.2910 0.8097
vn -0.5190 0.0835 0.8507
vn -0.7702 0.0835 0.6324
vn -0.7309 0.2910 0.6174
vn -0.9069 0.0869 0.4122
vn -0.9728 0.0855 0.2152
vn -0.9933 0.0855 -0.0777
vn -0.9555 0.0869 -0.2820
vn -0.8507 0.0835 -0.5190
vn -0.6324 0.0835 -0.7702
vn -0.8097 0.2910 -0.5096
vn -0.6174 0.2910 -0.7309
vn -0.3996 0.3524 -0.8463
vn -0.4122 0.0869 -0.9069
vn -0.2152 0.0855 -0.9728
vn -0.2088 0.3567 -0.9106
vn 0.0818 0.3544 -0.9315
vn 0.0777 0.0855 -0.9933
vn 0.2820 0.0869 -0.9555
vn 0.2843 0.3496 -0.8927
vn 0.5096 0.2910 -0.8097
vn 0.4230 0.5161 -0.7448
vn 0.7309 0.2910 -0.6174
vn 0.6787 0.5161 -0.5225
vn 0.6061 0.6765 -0.4182
vn 0.3298 0.6765 -0.6584
vn 0.8444 0.3496 -0.4058
vn 0.9110 0.3544 -0.2107
vn 0.8024 0.5944 -0.0527
vn 0.6731 0.7230 -0.1556
vn 0.6830 0.7275 0.0657
vn 0.9308 0.3567 0.0801
vn 0.8936 0.3524 0.2780
vn 0.7464 0.5175 0.4185
vn 0.6590 0.6757 0.3302
vn 0.4187 0.6757 0.6066
vn 0.5183 0.5175 0.6809
vn 0.6174 0.2910 0.7309
vn 0.8097 0.2910 0.5096
vn 0.2462 0.8576 0.4517
vn 0.4809 0.8560 0.1897
vn 0.1629 0.7294 0.6644
vn -0.0510 0.7306 0.6809
vn -0.1822 0.8573 0.4814
vn 0.0177 0.9665 0.2559
vn -0.3298 0.6765 0.6584
vn -0.6061 0.6765 0.4182
vn -0.4502 0.8558 0.2548
vn -0.6731 0.7230 0.1556
vn -0.6830 0.7275 -0.0657
vn -0.4809 0.8560 -0.1897
vn -0.2556 0.9666 0.0179
vn -0.2462 0.8576 -0.4517
vn -0.0177 0.9665 -0.2559
vn -0.6590 0.6757 -0.3302
vn -0.4187 0.6757 -0.6066
vn -0.1629 0.7294 -0.6644
vn -0.7464 0.5175 -0.4185
vn -0.5183 0.5175 -0.6809
vn -0.8024 0.5944 0.0527
vn -0.9308 0.3567 -0.0801
vn -0.8936 0.3524 -0.2780
vn -0.9110 0.3544 0.2107
vn 0.2556 0.9666 -0.0179
vn 0.1822 0.8573 -0.4814
vn 0.4502 0.8558 -0.2548
vn -0.6787 0.5161 0.5225
vn -0.8444 0.3496 0.4058
vn -0.4230 0.5161 0.7448
vn 0.0595 0.5944 0.8019
vn 0.0510 0.7306 -0.6809
vn -0.0595 0.5944 -0.8019
vn 0.4122 -0.0869 0.9069
vn 0.2152 -0.0855 0.9728
vn 0.6324 -0.0835 0.7702
vn 0.8507 -0.0835 0.5190
vn 0.9555 -0.0869 0.2820
vn 0.9933 -0.0855 0.0777
vn 0.9728 -0.0855 -0.2152
vn 0.8097 -0.2910 0.5096
vn 0.6174 -0.2910 0.7309
vn -0.6787 -0.5161 0.5225
s 1
f 4//4 3//3 2//2 1//1
f 2//2 3//3 6//6 5//5
f 6//6 8//8 7//7 5//5
f 7//7 8//8 10//10 9//9
f 9//9 10//10 12//12 11//11
f 10//10 14//14 13//13 12//12
f 13//13 16//16 15//15 12//12
f 15//15 16//16 18//18 17//17
f 18//18 20//20 19//19 17//17
f 19//19 20//20 22//22 21//21
f 21//21 22//22 24//24 23//23
f 24//24 26//26 25//25 23//23
f 25//25 26//26 28//28 27//27
f 31//31 30//30 29//29 28//28
f 26//26 32//32 31//31 28//28
f 29//29 30//30 33//33
f 33//33 36//36 35//35 34//34
f 37//37 29//29 33//33 34//34
f 39//39 38//38 35//35 36//36
f 43//43 42//42 41//41 40//40
f 38//38 39//39 43//43 40//40
f 41//41 42//42 44//44
f 47//47 46//46 45//45 44//44
f 42//42 48//48 47//47 44//44
f 45//45 46//46 49//49
f 46//46 51//51 50//50 49//49
f 51//51 52//52 50//50
f 56//56 55//55 54//54 53//53
f 52//52 51//51 56//56 53//53
f 54//54 55//55 57//57
f 57//57 60//60 59//59 58//58
f 61//61 54//54 57//57 58//58
f 63//63 59//59 60//60 62//62
f 64//64 59//59 63//63 14//14
f 60//60 66//66 65//65 62//62
f 62//62 65//65 67//67
f 70//70 69//69 68//68 67//67
f 65//65 70//70 67//67
f 68//68 69//69 71//71
f 71//71 69//69 72//72 31//31
f 69//69 70//70 73//73 72//72
f 70//70 75//75 74//74 73//73
f 75//75 77//77 76//76 74//74
f 76//76 77//77 56//56 47//47
f 74//74 76//76 48//48 43//43
f 78//78 74//74 43//43
f 73//73 74//74 78//78 79//79
f 68//68 80//80 67//67
f 65//65 66//66 75//75 70//70
f 59//59 64//64 58//58
f 66//66 60//60 57//57
f 54//54 61//61 53//53
f 77//77 55//55 56//56
f 81//81 52//52 53//53 4//4
f 49//49 50//50 83//83 82//82
f 82//82 83//83 85//85 84//84
f 83//83 81//81 86//86 85//85
f 88//88 87//87 82//82 84//84
f 90//88 88//88 84//84 89//84
f 92//88 90//88 89//84 91//84
f 94//89 90//88 92//88 93//89
f 96//90 95//90 94//89 93//89
f 98//91 95//90 96//90 97//91
f 100//92 99//92 98//91 97//91
f 102//93 99//92 100//92 101//93
f 104//94 102//93 101//93 103//94
f 106//95 105//95 104//94 103//94
f 108//96 105//95 106//95 107//96
f 110//97 109//97 108//96 107//96
f 112//98 109//97 110//97 111//98
f 114//99 113//99 112//98 111//98
f 116//100 115//100 113//99 114//99
f 118//101 115//100 116//100 117//101
f 120//102 119//102 118//101 117//101
f 122//11 119//102 120//102 121//11
f 124//9 123//9 122//11 121//11
f 126//7 125//7 123//9 124//9
f 128//5 125//7 126//7 127//5
f 130//2 129//2 128//5 127//5
f 132//1 129//2 130//2 131//1
f 134//86 133//86 132//1 131//1
f 136//85 133//86 134//86 135//85
f 135//85 134//86 138//86 137//85
f 91//84 135//85 137//85 139//84
f 139//84 137//85 141//104 140//103
f 143//105 142//88 139//84 140//103
f 145//89 142//88 143//105 144//106
f 147//107 146//90 145//89 144//106
f 149//91 146//90 147//107 148//108
f 151//109 150//92 149//91 148//108
f 153//93 150//92 151//109 152//110
f 155//94 153//93 152//110 154//111
f 157//112 156//95 155//94 154//111
f 159//114 157//112 154//111 158//113
f 161//116 157//112 159//114 160//115
f 163//118 162//117 161//116 160//115
f 165//120 162//117 163//118 164//119
f 167//122 166//121 165//120 164//119
f 166//121 169//99 168//98 165//120
f 171//123 170//100 169//99 166//121
f 173//101 170//100 171//123 172//124
f 175//125 174//102 173//101 172//124
f 177//11 174//102 175//125 176//126
f 179//127 178//9 177//11 176//126
f 181//128 180//7 178//9 179//127
f 183//130 181//128 179//127 182//129
f 185//132 181//128 183//130 184//131
f 187//134 186//133 185//132 184//131
f 189//136 186//133 187//134 188//135
f 191//138 190//137 189//136 188//135
f 141//104 190//137 191//138 192//139
f 191//138 193//140 192//139
f 192//139 193//140 195//142 194//141
f 195//142 193//140 197//144 196//143
f 199//146 198//145 195//142 196//143
f 201//148 200//147 199//146 196//143
f 200//147 201//148 202//149
f 204//151 203//150 200//147 202//149
f 206//153 205//152 204//151 202//149
f 208//155 205//152 206//153 207//154
f 210//157 205//152 208//155 209//156
f 209//156 208//155 158//113
f 206//153 212//159 211//158 207//154
f 207//154 211//158 213//160
f 216//163 215//162 214//161 213//160
f 211//158 216//163 213//160
f 214//161 215//162 217//164
f 215//162 219//166 218//165 217//164
f 219//166 220//167 218//165
f 219//166 223//170 222//169 221//168
f 220//167 219//166 221//168
f 225//172 224//171 222//169 223//170
f 222//169 224//171 227//174 226//173
f 227//174 224//171 228//175
f 227//174 230//177 229//176 226//173
f 233//180 232//179 231//178 221//168
f 226//173 229//176 233//180 221//168
f 231//178 232//179 234//181
f 229//176 182//129 233//180
f 235//182 225//172 223//170 216//163
f 237//184 236//183 225//172 235//182
f 222//169 226//173 221//168
f 231//178 220//167 221//168
f 234//181 239//186 238//185 218//165
f 220//167 231//178 234//181 218//165
f 238//185 239//186 167//122
f 218//165 238//185 240//187 217//164
f 216//163 223//170 219//166 215//162
f 214//161 241//188 213//160
f 212//159 235//182 216//163 211//158
f 205//152 210//157 204//151
f 212//159 206//153 202//149
f 237//184 235//182 212//159 202//149
f 201//148 237//184 202//149
f 200//147 203//150 199//146
f 237//184 201//148 196//143
f 197//144 236//183 237//184 196//143
f 242//189 236//183 197//144
f 195//142 198//145 194//141
f 190//137 138//86 243//1 189//136
f 188//135 244//190 242//189 197//144
f 193//140 191//138 188//135 197//144
f 242//189 244//190 228//175
f 243//1 245//2 186//133 189//136
f 187//134 244//190 188//135
f 186//133 245//2 246//5 185//132
f 184//131 230//177 227//174 228//175
f 244//190 187//134 184//131 228//175
f 183//130 230//177 184//131
f 229//176 230//177 183//130 182//129
f 182//129 179//127 176//126 233//180
f 176//126 175//125 232//179 233//180
f 232//179 175//125 172//124 234//181
f 172//124 171//123 239//186 234//181
f 240//187 238//185 167//122 164//119
f 168//98 247//97 162//117 165//120
f 163//118 240//187 164//119
f 162//117 247//97 248//96 161//116
f 160//115 241//188 214//161 217//164
f 240//187 163//118 160//115 217//164
f 159//114 241//188 160//115
f 158//113 208//155 207//154 213//160
f 241//188 159//114 158//113 213//160
f 154//111 152//110 209//156 158//113
f 152//110 151//109 210//157 209//156
f 148//108 147//107 203//150 204//151
f 203//150 147//107 144//106 199//146
f 144//106 143//105 198//145 199//146
f 198//145 143//105 140//103 194//141
f 140//103 141//104 192//139 194//141
f 133//86 86//86 1//1 132//1
f 138//86 134//86 131//1 243//1
f 245//2 130//2 127//5 246//5
f 127//5 126//7 180//7 246//5
f 180//7 126//7 124//9 178//9
f 178//9 124//9 121//11 177//11
f 119//102 250//102 249//101 118//101
f 174//102 120//102 117//101 173//101
f 249//101 251//100 115//100 118//101
f 117//101 116//100 170//100 173//101
f 170//100 116//100 114//99 169//99
f 113//99 253//99 252//98 112//98
f 169//99 114//99 111//98 168//98
f 252//98 254//97 109//97 112//98
f 111//98 110//97 247//97 168//98
f 109//97 254//97 255//96 108//96
f 247//97 110//97 107//96 248//96
f 107//96 106//95 156//95 248//96
f 105//95 257//95 256//94 104//94
f 257//95 259//192 258//191 256//94
f 27//27 259//192 257//95 255//96
f 258//191 261//193 260//93 256//94
f 261//193 263//194 262//92 260//93
f 262//92 263//194 265//195 264//91
f 265//195 267//196 266//90 264//91
f 266//90 267//196 269//197 268//89
f 263//194 270//198 40//40 265//195
f 271//199 270//198 263//194 261//193
f 34//34 271//199 261//193 258//191
f 156//95 106//95 103//94 155//94
f 256//94 260//93 102//93 104//94
f 103//94 101//93 153//93 155//94
f 260//93 262//92 99//92 102//93
f 101//93 100//92 150//92 153//93
f 150//92 100//92 97//91 149//91
f 264//91 266//90 95//90 98//91
f 97//91 96//90 146//90 149//91
f 95//90 266//90 268//89 94//89
f 146//90 96//90 93//89 145//89
f 89//84 136//85 135//85 91//84
f 142//88 92//88 91//84 139//84
f 84//84 85//85 136//85 89//84
f 87//87 45//45 49//49 82//82
f 56//56 51//51 46//46 47//47
f 48//48 76//76 47//47
f 44//44 45//45 87//87 269//197
f 267//196 41//41 44//44 269//197
f 48//48 42//42 43//43
f 39//39 78//78 43//43
f 40//40 41//41 267//196 265//195
f 35//35 38//38 270//198 271//199
f 79//79 78//78 39//39 36//36
f 35//35 271//199 34//34
f 79//79 36//36 33//33
f 259//192 37//37 34//34 258//191
f 72//72 73//73 79//79 33//33
f 30//30 72//72 33//33
f 32//32 272//200 71//71 31//31
f 29//29 37//37 28//28
f 72//72 30//30 31//31
f 254//97 25//25 27//27 255//96
f 32//32 26//26 24//24
f 23//23 25//25 254//97 252//98
f 22//22 272//200 32//32 24//24
f 253//99 21//21 23//23 252//98
f 251//100 19//19 21//21 253//99
f 71//71 272//200 20//20 18//18
f 80//80 68//68 71//71 18//18
f 17//17 19//19 251//100 249//101
f 16//16 80//80 18//18
f 250//102 15//15 17//17 249//101
f 67//67 80//80 16//16 13//13
f 63//63 62//62 67//67 13//13
f 14//14 63//63 13//13
f 123//9 9//9 11//11 122//11
f 8//8 64//64 14//14 10//10
f 125//7 7//7 9//9 123//9
f 3//3 61//61 58//58 6//6
f 129//2 2//2 5//5 128//5
f 86//86 81//81 4//4 1//1
f 53//53 61//61 3//3 4//4
f 58//58 64//64 8//8 6//6
f 12//12 15//15 250//102 11//11
f 50//50 52//52 81//81 83//83
f 77//77 75//75 66//66 57//57
f 55//55 77//77 57//57
f 20//20 272//200 22//22
f 269//197 87//87 88//88 268//89
f 270//198 38//38 40//40
f 28//28 37//37 259//192 27//27
f 1//1 2//2 129//2 132//1
f 5//5 7//7 125//7 128//5
f 11//11 250//102 119//102 122//11
f 85//85 86//86 133//86 136//85
f 115//100 251//100 253//99 113//99
f 268//89 88//88 90//88 94//89
f 99//92 262//92 264//91 98//91
f 255//96 257//95 105//95 108//96
f 131//1 130//2 245//2 243//1
f 246//5 180//7 181//128 185//132
f 121//11 120//102 174//102 177//11
f 137//85 138//86 190//137 141//104
f 225//172 236//183 242//189 228//175
f 224//171 225//172 228//175
f 239//186 171//123 166//121 167//122
f 93//89 92//88 142//88 145//89
f 210//157 151//109 148//108 204//151
f 248//96 156//95 157//112 161//116
